<svg width="60" height="60" viewBox="0 0 60 60" fill="none" xmlns="http://www.w3.org/2000/svg">
<g clip-path="url(#clip0_65_187)">
<path d="M30 0C13.4579 0 0 13.4579 0 30C0 46.5421 13.4579 60 30 60C46.5421 60 60 46.5421 60 30C60 13.4579 46.5421 0 30 0ZM30 56.5676C15.3505 56.5676 3.43236 44.6493 3.43236 30C3.43236 15.3507 15.3505 3.43236 30 3.43236C44.6495 3.43236 56.5676 15.3507 56.5676 30C56.5676 44.6493 44.6495 56.5676 30 56.5676Z" fill="white"/>
<path d="M36.9482 13.7202H32.8801C29.5505 13.7202 26.8417 16.4291 26.8417 19.7587V24.3352H23.0518C22.1038 24.3352 21.3356 25.1035 21.3356 26.0514C21.3356 26.9993 22.1038 27.7675 23.0518 27.7675H26.8417V43.6581C26.8417 44.606 27.6099 45.3742 28.5578 45.3742C29.5057 45.3742 30.274 44.606 30.274 43.6581V27.7675H36.1376C37.0855 27.7675 37.8538 26.9993 37.8538 26.0514C37.8538 25.1035 37.0855 24.3352 36.1376 24.3352H30.274V19.7587C30.274 18.3217 31.4431 17.1526 32.8801 17.1526H36.9481C37.896 17.1526 38.6642 16.3843 38.6642 15.4364C38.6642 14.4885 37.896 13.7202 36.9482 13.7202Z" fill="white"/>
</g>
<defs>
<clipPath id="clip0_65_187">
<rect width="60" height="60" fill="white"/>
</clipPath>
</defs>
</svg>
