<svg width="60" height="60" viewBox="0 0 60 60" fill="none" xmlns="http://www.w3.org/2000/svg">
<path fill-rule="evenodd" clip-rule="evenodd" d="M30 3.86363C14.862 3.86363 2.6087 16.0542 2.6087 31.0693C2.6087 42.0935 9.21525 51.582 18.7257 55.8507C19.72 56.297 20.6936 56.1205 21.4531 55.5513C22.2314 54.9678 22.7831 53.9633 22.7831 52.782V51.3565L19.3904 50.897C19.3658 50.8938 19.3412 50.8898 19.3168 50.885C17.4442 50.5208 16.1826 49.8633 15.2579 48.9155C14.4792 48.1175 14.0048 47.1615 13.6027 46.3512C13.5551 46.2555 13.5085 46.1618 13.4626 46.0705C12.9536 45.059 12.5908 44.341 12.2446 43.7927C11.908 43.26 11.6447 42.9843 11.3853 42.8123C10.7239 42.3743 10.0908 41.6328 10.0908 40.704C10.0908 40.1945 10.2962 39.6738 10.7416 39.305C11.1612 38.9575 11.6659 38.8488 12.1046 38.8488C12.6608 38.8488 13.1826 39.019 13.6183 39.2145C14.0635 39.4142 14.5043 39.6802 14.9171 39.9552C15.9217 40.625 16.9124 41.4188 17.7501 42.394C18.6224 43.4095 19.2388 44.056 20.171 44.1883C20.934 44.2965 21.7143 44.2997 22.3228 44.272C22.3495 44.1275 22.3822 43.9745 22.4222 43.8158C22.4942 43.5308 22.5949 43.2072 22.7378 42.8725C22.0476 42.7105 21.2989 42.4993 20.5462 42.2323C18.9093 41.6518 17.0887 40.7513 15.8634 39.3815C14.5174 37.877 13.6844 36.5363 13.2192 34.9645C12.7663 33.4347 12.6923 31.7782 12.6923 29.7362C12.6923 26.614 14.0453 23.9803 15.0589 22.5836C14.7258 21.5202 14.3772 20.1393 14.2228 18.8293C14.128 18.0248 14.097 17.1733 14.225 16.4109C14.3482 15.677 14.663 14.7776 15.4846 14.2334C16.2784 13.7076 17.2063 13.7291 17.9314 13.8659C18.6856 14.0082 19.4679 14.3206 20.1873 14.6766C21.3588 15.2563 22.5245 16.033 23.3979 16.6889C24.9037 16.2467 27.5655 15.6781 29.9715 15.6252C29.9905 15.6248 30.0095 15.6248 30.0285 15.6252C32.4365 15.6782 34.9808 16.2466 36.4473 16.6868C37.3203 16.0314 38.4848 15.2557 39.655 14.6766C40.3745 14.3206 41.1567 14.0082 41.911 13.8659C42.636 13.7291 43.564 13.7076 44.3577 14.2334C45.1792 14.7776 45.494 15.677 45.6173 16.4109C45.7453 17.1733 45.7143 18.0248 45.6195 18.8293C45.465 20.1393 45.1165 21.5202 44.7835 22.5836C45.797 23.9803 47.15 26.614 47.15 29.7362C47.15 31.7782 47.076 33.4347 46.6232 34.9645C46.158 36.5363 45.325 37.877 43.979 39.3815C42.7537 40.7513 40.933 41.6518 39.2962 42.2323C38.372 42.56 37.454 42.8038 36.6427 42.9755C36.95 43.905 37.0592 44.6575 37.0592 45.0892V52.8138C37.0592 53.991 37.6075 54.9937 38.383 55.5785C39.14 56.1495 40.1115 56.3298 41.106 55.8918C50.7035 51.662 57.3912 42.1507 57.3912 31.0693C57.3912 16.0542 45.138 3.86363 30 3.86363ZM23.6905 46.7757C23.0424 46.8685 23.6868 46.7765 23.6868 46.7765L23.68 46.7772L23.6591 46.7802L23.5879 46.7892C23.5279 46.7967 23.4432 46.8067 23.3373 46.8175C23.1258 46.839 22.8278 46.8645 22.4713 46.8815C21.7656 46.915 20.7976 46.9167 19.8051 46.776C17.8263 46.495 16.6262 45.0945 15.8471 44.1855C15.8219 44.156 15.7972 44.1273 15.7728 44.0987C15.5227 43.8075 15.2488 43.5312 14.955 43.2675C15.2133 43.7437 15.4794 44.2725 15.767 44.844L15.792 44.8938C15.8366 44.9825 15.8796 45.0682 15.9212 45.1512C16.3575 46.0222 16.6473 46.6007 17.1232 47.0885C17.587 47.5637 18.3133 48.0222 19.7781 48.3122L24.2622 48.9195C24.9091 49.0073 25.3918 49.5605 25.3918 50.2145V52.782C25.3918 54.7833 24.4554 56.5648 23.016 57.6438C21.5577 58.737 19.5839 59.1 17.6592 58.236C7.2549 53.5662 0 43.1715 0 31.0693C0 14.5903 13.4417 1.25 30 1.25C46.5583 1.25 60 14.5903 60 31.0693C60 43.2385 52.653 53.6583 42.1562 58.284C40.2322 59.132 38.2658 58.7612 36.8143 57.6667C35.3813 56.586 34.4505 54.8085 34.4505 52.8138V45.0892C34.4505 44.9142 34.3283 43.9035 33.6442 42.5443C33.4517 42.1618 33.4585 41.7093 33.6623 41.3327C33.8662 40.9565 34.2412 40.704 34.666 40.657C35.5215 40.5625 36.9675 40.2855 38.4258 39.7685C39.9108 39.2417 41.2435 38.5235 42.0363 37.6372C43.213 36.3218 43.799 35.3128 44.1222 34.2213C44.4577 33.0878 44.5412 31.7677 44.5412 29.7362C44.5412 26.8845 43.0423 24.4875 42.3518 23.7155C42.0335 23.3598 41.9342 22.8587 42.093 22.4083C42.4405 21.4219 42.8675 19.8907 43.0288 18.5228C43.11 17.8338 43.1145 17.2597 43.0447 16.8445C42.998 16.5653 42.9345 16.4498 42.9103 16.4133C42.8653 16.4011 42.7175 16.3733 42.3938 16.4344C41.968 16.5147 41.4258 16.7154 40.8102 17.02C39.5863 17.6257 38.3115 18.5213 37.5192 19.1609C37.1647 19.4472 36.6867 19.5275 36.2585 19.3727C35.2528 19.0093 32.5065 18.2989 30 18.2389C27.4823 18.2992 24.5785 19.0133 23.5839 19.3727C23.1556 19.5275 22.6776 19.4472 22.323 19.1609C21.5307 18.5213 20.256 17.6257 19.032 17.02C18.4165 16.7154 17.8743 16.5147 17.4487 16.4344C17.1248 16.3733 16.9771 16.4011 16.9322 16.4133C16.9078 16.4498 16.8444 16.5653 16.7975 16.8445C16.7278 17.2597 16.7323 17.8338 16.8135 18.5228C16.9748 19.8907 17.4019 21.4219 17.7493 22.4083C17.908 22.8587 17.8088 23.3598 17.4907 23.7155C16.8 24.4875 15.301 26.8845 15.301 29.7362C15.301 31.7677 15.3847 33.0878 15.7202 34.2213C16.0433 35.3128 16.6293 36.3218 17.806 37.6372C18.5988 38.5235 19.9316 39.2417 21.4166 39.7685C22.8747 40.2855 24.3209 40.5625 25.1763 40.657C25.714 40.7163 26.1593 41.102 26.2955 41.6262C26.432 42.1505 26.2312 42.705 25.7912 43.0197C25.3777 43.3152 25.1058 43.8445 24.9514 44.4562C24.8786 44.745 24.8428 45.0108 24.8257 45.2033C24.8172 45.2985 24.8136 45.373 24.812 45.4198L24.8109 45.4672C24.8182 46.123 24.3387 46.6833 23.6905 46.7757Z" fill="white"/>
</svg>
