<svg width="60" height="60" viewBox="0 0 60 60" fill="none" xmlns="http://www.w3.org/2000/svg">
<g clip-path="url(#clip0_65_206)">
<path d="M30 0C13.4579 0 0 13.4579 0 30C0 46.5421 13.4579 60 30 60C46.5421 60 60 46.5421 60 30C60 13.4579 46.5421 0 30 0ZM30 56.5676C15.3505 56.5676 3.43236 44.6493 3.43236 30C3.43236 15.3507 15.3505 3.43236 30 3.43236C44.6495 3.43236 56.5676 15.3507 56.5676 30C56.5676 44.6493 44.6495 56.5676 30 56.5676Z" fill="white"/>
<path d="M21.4191 23.0957C20.4712 23.0957 19.7029 23.864 19.7029 24.8119V39.0017C19.7029 39.9496 20.4712 40.7178 21.4191 40.7178C22.367 40.7178 23.1352 39.9496 23.1352 39.0017V24.8119C23.1352 23.864 22.367 23.0957 21.4191 23.0957Z" fill="white"/>
<path d="M21.4191 15.0864C20.9671 15.0864 20.5247 15.2695 20.2063 15.5898C19.8859 15.9083 19.7029 16.3507 19.7029 16.8026C19.7029 17.2545 19.8859 17.6967 20.2063 18.0173C20.5247 18.3357 20.9671 18.5188 21.4191 18.5188C21.871 18.5188 22.3134 18.3357 22.6318 18.0173C22.9522 17.6967 23.1352 17.2545 23.1352 16.8026C23.1352 16.3507 22.9522 15.9083 22.6318 15.5898C22.3134 15.2695 21.871 15.0864 21.4191 15.0864Z" fill="white"/>
<path d="M36.245 24.4305C34.4487 24.4305 32.7861 25.0094 31.4302 25.9882V24.8119C31.4302 23.864 30.6619 23.0957 29.714 23.0957C28.7661 23.0957 27.9978 23.864 27.9978 24.8119V39.0017C27.9978 39.9496 28.7661 40.7178 29.714 40.7178C30.6619 40.7178 31.4302 39.9496 31.4302 39.0017V32.6777C31.4302 30.0228 33.5901 27.8629 36.245 27.8629C38.8999 27.8629 41.0599 30.0228 41.0599 32.6777V39.383C41.0599 40.3309 41.8281 41.0992 42.776 41.0992C43.7239 41.0992 44.4922 40.3309 44.4922 39.383V32.6777C44.4922 28.1302 40.7925 24.4305 36.245 24.4305Z" fill="white"/>
</g>
<defs>
<clipPath id="clip0_65_206">
<rect width="60" height="60" fill="white"/>
</clipPath>
</defs>
</svg>
